<svg width="60" height="60" viewBox="0 0 60 60" fill="none" xmlns="http://www.w3.org/2000/svg">
<circle cx="30" cy="30" r="29" fill="#F3BA2F" stroke="white" stroke-width="2"/>
<path d="M22.6106 26.964L29.9999 19.5746L37.3928 26.9672L41.6922 22.6677L29.9999 10.9756L18.3114 22.6642L22.6107 26.9637L22.6106 26.964ZM10.9756 30L15.2752 25.6997L19.5746 29.9991L15.2749 34.2987L10.9756 30ZM22.6106 33.0364L29.9999 40.4253L37.3926 33.0329L41.6944 37.3302L41.6922 37.3324L29.9999 49.0244L18.3114 37.3358L18.3053 37.3297L22.611 33.036L22.6106 33.0364ZM40.4252 30.0018L44.7249 25.7021L49.0242 30.0015L44.7247 34.3012L40.4252 30.0018Z" fill="white"/>
<path d="M34.3605 29.9977H34.3624L29.9999 25.6349L26.7753 28.8585L26.4049 29.2291L25.6409 29.9933L25.6348 29.9992L25.6409 30.0055L29.9999 34.3651L34.3627 30.0023L34.3648 29.9998L34.3608 29.9977" fill="white"/>
</svg>
