<svg width="33" height="34" viewBox="0 0 33 34" fill="none" xmlns="http://www.w3.org/2000/svg">
<path d="M16.5 33.3334C25.6127 33.3334 33 25.9461 33 16.8334C33 7.72068 25.6127 0.333374 16.5 0.333374C7.3873 0.333374 0 7.72068 0 16.8334C0 25.9461 7.3873 33.3334 16.5 33.3334Z" fill="#F0B90B"/>
<path d="M10.3468 16.8334L7.8223 19.3754L5.28027 16.8334L7.8223 14.2914L10.3468 16.8334ZM16.5003 10.6799L20.848 15.0277L23.3901 12.4857L19.0423 8.15543L16.5003 5.6134L13.9582 8.15543L9.62802 12.4857L12.1701 15.0277L16.5003 10.6799ZM25.1782 14.2914L22.6537 16.8334L25.1958 19.3754L27.7203 16.8334L25.1782 14.2914ZM16.5003 22.9869L12.1525 18.6391L9.62802 21.1812L13.9758 25.5289L16.5003 28.0534L19.0423 25.5114L23.3901 21.1636L20.848 18.6391L16.5003 22.9869ZM16.5003 19.3754L19.0423 16.8334L16.5003 14.2914L13.9582 16.8334L16.5003 19.3754Z" fill="white"/>
</svg>
