<svg width="50" height="50" viewBox="0 0 50 50" fill="none" xmlns="http://www.w3.org/2000/svg">
<rect width="50" height="50" rx="25" fill="url(#paint0_linear_34_442)"/>
<path d="M23.4348 15.6086C18.2492 15.6086 14.0435 19.8144 14.0435 24.9999C14.0435 30.1855 18.2492 34.3913 23.4348 34.3913C24.0719 34.3913 24.6919 34.3166 25.2935 34.1956C25.8427 34.2933 26.4506 34.3913 27.0869 34.3913C32.2725 34.3913 36.4782 30.1855 36.4782 24.9999C36.4782 19.8144 32.2725 15.6086 27.0869 15.6086C26.486 15.6086 25.8826 15.6624 25.2935 15.8043C24.6919 15.6833 24.0719 15.6086 23.4348 15.6086ZM23.4348 16.6521C23.9785 16.6521 24.502 16.7004 25.0163 16.7989C25.1056 16.8489 25.2077 16.8716 25.3098 16.8641C29.0219 17.7132 31.7826 21.0239 31.7826 24.9999C31.7826 28.9868 29.0046 32.2979 25.2772 33.1358C25.1915 33.1372 25.1075 33.1596 25.0326 33.201C24.5134 33.3015 23.9841 33.3478 23.4348 33.3478C18.8116 33.3478 15.0869 29.6231 15.0869 24.9999C15.0869 20.3768 18.8116 16.6521 23.4348 16.6521ZM27.8043 16.701C32.0853 17.0669 35.4348 20.6215 35.4348 24.9999C35.4348 29.3784 32.0853 32.933 27.8043 33.2989C30.7904 31.7263 32.8261 28.6084 32.8261 24.9999C32.8261 21.3915 30.7904 18.2736 27.8043 16.701ZM22.913 19.2608V20.4021C22.0782 20.5065 20.5652 21.2369 20.5652 23.0108C20.5652 26.3499 25.4239 24.6315 25.4239 27.1358C25.4239 27.9706 25.0522 28.7499 23.4348 28.7499C21.8174 28.7499 21.3478 27.5043 21.3478 26.826H20.3043C20.4608 29.0695 22.0261 29.588 22.913 29.7445V30.7391H23.9565V29.7445C24.7391 29.6923 26.5652 29.1249 26.5652 27.038C26.5652 25.3163 25.15 24.8402 23.7935 24.5271C22.6978 24.2663 21.7065 24.0086 21.7065 22.913C21.7065 22.4434 21.9185 21.3967 23.4837 21.3967C24.5793 21.3967 25.1043 22.0782 25.2608 22.913H26.3043C25.9913 21.7652 25.4695 20.7282 23.9565 20.4673V19.2608H22.913Z" fill="white" stroke="white"/>
<defs>
<linearGradient id="paint0_linear_34_442" x1="-1.06887" y1="0.152229" x2="53.6362" y2="4.40351" gradientUnits="userSpaceOnUse">
<stop stop-color="#6C01C3"/>
<stop offset="1" stop-color="#901CEE"/>
</linearGradient>
</defs>
</svg>
