<svg width="60" height="60" viewBox="0 0 60 60" fill="none" xmlns="http://www.w3.org/2000/svg">
<path d="M30 59C13.9837 59 1 46.0163 1 30C1 13.9837 13.9837 1 30 1C46.0163 1 59 13.9837 59 30C59 46.0163 46.0163 59 30 59Z" fill="#F3BA2F" stroke="white" stroke-width="2"/>
<path d="M19.5038 19.1494L22.0375 17.8239V42.7215L20.2442 41.7379L16.5452 28.5077V39.7057L14.4375 38.5507V22.4228L16.5452 21.2917C16.5452 21.442 18.5933 27.7569 19.4817 30.4904L19.5038 19.1494ZM24.1904 43.7912L26.5663 45.2891V31.3851H35.4221V28.5828H26.5663V17.6094L30 15.7486L35.9798 19.0642L37.3471 17.0319L30 12.9253L24.1904 16.2408V43.7912ZM40.3769 21.6739V41.8406L43 40.45V23.0425L46.25 25.16V22.5081L38.5163 17.845L37.2115 19.7058L40.3769 21.6739ZM50 19.0587V40.9835L30.0308 52L10 40.989V19.0642L30 8L50 19.0587ZM47.625 20.2568L30 10.5245L12.375 20.2623V39.7057L30.0308 49.4333L47.6269 39.7002L47.625 20.2568Z" fill="white"/>
</svg>
