<svg width="254" height="33" viewBox="0 0 254 33" fill="none" xmlns="http://www.w3.org/2000/svg">
<path fill-rule="evenodd" clip-rule="evenodd" d="M16.3594 33C21.0909 33 25.3533 30.9741 28.3403 27.7354L31.6548 23.878L42.8684 12.5681C44.0386 10.8132 46.0257 9.65854 48.2802 9.65854C50.467 9.65854 52.4023 10.7449 53.5844 12.4117L60.6065 5.65116C57.6076 2.18792 53.1972 0 48.2802 0C43.425 0 39.0638 2.13326 36.0677 5.52115C35.985 5.61469 35.8884 5.70238 35.7798 5.78421L32.3198 9.39024L28.8873 5.80458C28.7674 5.71697 28.6616 5.6225 28.5719 5.52115C25.5759 2.13326 21.2146 0 16.3594 0C7.32436 0 0 7.3873 0 16.5C0 25.6127 7.32436 33 16.3594 33ZM21.6176 20.1159C20.4316 21.7464 18.518 22.8049 16.3594 22.8049C12.7601 22.8049 9.84225 19.862 9.84225 16.2317C9.84225 12.6014 12.7601 9.65854 16.3594 9.65854C18.6139 9.65854 20.601 10.8132 21.7712 12.5681L25.5366 16.3659L21.6176 20.1159Z" fill="url(#paint0_linear_80_1317)"/>
<path d="M42.0933 18.3034L34.6082 25.6341L36.5293 27.9797C39.5031 31.0757 43.6688 33 48.2802 33C53.2702 33 57.7385 30.7466 60.7391 27.1938L53.4715 20.2062C52.2812 21.7853 50.3987 22.8049 48.2802 22.8049C45.3986 22.8049 42.9537 20.9186 42.0933 18.3034Z" fill="url(#paint1_linear_80_1317)"/>
<path d="M74.3318 16.3686C74.3318 14.9094 74.584 13.5763 75.0884 12.3694C75.6108 11.1624 76.3314 10.1176 77.2501 9.23484C78.1869 8.35213 79.2678 7.67659 80.4927 7.20821C81.7357 6.72182 83.0778 6.47862 84.519 6.47862C85.9782 6.47862 87.3292 6.72182 88.5722 7.20821C89.8152 7.67659 90.8871 8.35213 91.7878 9.23484C92.7066 10.1176 93.4181 11.1624 93.9225 12.3694C94.445 13.5763 94.7062 14.9094 94.7062 16.3686C94.7062 17.8278 94.454 19.1698 93.9496 20.3948C93.4632 21.6198 92.7606 22.6827 91.8419 23.5834C90.9231 24.4841 89.8423 25.1867 88.5993 25.6911C87.3743 26.1775 86.0142 26.4207 84.519 26.4207C83.0418 26.4207 81.6817 26.1775 80.4387 25.6911C79.1957 25.1867 78.1148 24.4841 77.1961 23.5834C76.2774 22.6827 75.5658 21.6198 75.0614 20.3948C74.575 19.1698 74.3318 17.8278 74.3318 16.3686ZM79.1687 16.3686C79.1687 17.4855 79.3849 18.4763 79.8172 19.341C80.2676 20.1877 80.8981 20.8542 81.7087 21.3406C82.5194 21.827 83.4561 22.0702 84.519 22.0702C85.5999 22.0702 86.5366 21.827 87.3292 21.3406C88.1219 20.8542 88.7344 20.1877 89.1667 19.341C89.6171 18.4763 89.8423 17.4855 89.8423 16.3686C89.8423 15.2517 89.6261 14.2699 89.1937 13.4232C88.7614 12.5585 88.1489 11.883 87.3563 11.3966C86.5636 10.9102 85.6179 10.667 84.519 10.667C83.4561 10.667 82.5194 10.9102 81.7087 11.3966C80.8981 11.883 80.2676 12.5585 79.8172 13.4232C79.3849 14.2699 79.1687 15.2517 79.1687 16.3686Z" fill="#363636"/>
<path d="M97.6053 6.91097H104.172C106.586 6.91097 108.414 7.46041 109.657 8.5593C110.9 9.65818 111.522 11.1714 111.522 13.0989C111.522 15.0085 110.9 16.5217 109.657 17.6386C108.414 18.7375 106.586 19.2869 104.172 19.2869H102.172V25.8262H97.6053V6.91097ZM104.172 10.667H102.172V15.5039H104.172C105.09 15.5039 105.811 15.2967 106.333 14.8824C106.856 14.468 107.117 13.8736 107.117 13.0989C107.117 12.3063 106.856 11.7028 106.333 11.2885C105.811 10.8742 105.09 10.667 104.172 10.667Z" fill="#363636"/>
<path d="M114.441 6.91097H127.006V10.667H118.846V14.0447H126.466V17.7467H118.846V22.0702H127.006V25.8262H114.441V6.91097Z" fill="#363636"/>
<path d="M143.774 6.91097H148.179V26.7719L135.127 15.2066V25.8262H130.723V5.96521L143.774 17.5305V6.91097Z" fill="#363636"/>
<path d="M153.663 16.3686C153.663 17.8278 153.988 19.1158 154.636 20.2327C155.303 21.3496 156.167 22.2233 157.23 22.8538C158.293 23.4843 159.446 23.7996 160.689 23.7996C162.022 23.7996 163.202 23.5383 164.229 23.0159C165.256 22.4935 166.102 21.818 166.769 20.9893V24.0157C165.976 24.7183 165.112 25.2407 164.175 25.583C163.238 25.9253 162.076 26.0964 160.689 26.0964C159.374 26.0964 158.14 25.8622 156.987 25.3938C155.852 24.9074 154.852 24.2319 153.988 23.3672C153.123 22.4845 152.447 21.4487 151.961 20.2597C151.475 19.0708 151.231 17.7737 151.231 16.3686C151.231 14.9634 151.475 13.6664 151.961 12.4774C152.447 11.2885 153.123 10.2617 153.988 9.39697C154.852 8.51426 155.852 7.83872 156.987 7.37034C158.14 6.88395 159.374 6.64075 160.689 6.64075C162.076 6.64075 163.238 6.81189 164.175 7.15417C165.112 7.49644 165.976 8.01886 166.769 8.72143V11.7479C166.102 10.9012 165.256 10.2256 164.229 9.72123C163.202 9.19881 162.022 8.9376 160.689 8.9376C159.446 8.9376 158.293 9.25286 157.23 9.88336C156.167 10.5139 155.303 11.3876 154.636 12.5045C153.988 13.6034 153.663 14.8914 153.663 16.3686Z" fill="#363636"/>
<path d="M183.385 25.8262L180.98 20.1516H173.36L170.955 25.8262H168.388L177.17 5.96521L185.952 25.8262H183.385ZM177.17 11.1804L174.279 17.9899H180.062L177.17 11.1804Z" fill="#363636"/>
<path d="M202.575 6.91097H204.872V26.7719L190.55 11.7479V25.8262H188.253V5.96521L202.575 20.9893V6.91097Z" fill="#363636"/>
<path d="M215.961 21.5568L222.176 6.91097H224.743L215.961 26.7719L207.179 6.91097H209.746L215.961 21.5568Z" fill="#363636"/>
<path d="M237.323 25.8262L234.918 20.1516H227.298L224.893 25.8262H222.326L231.108 5.96521L239.89 25.8262H237.323ZM231.108 11.1804L228.217 17.9899H233.999L231.108 11.1804Z" fill="#363636"/>
<path d="M242.894 20.0976C243.524 21.2505 244.227 22.1783 245.002 22.8808C245.794 23.5834 246.758 23.9347 247.893 23.9347C248.902 23.9347 249.712 23.6554 250.325 23.097C250.937 22.5385 251.244 21.827 251.244 20.9623C251.244 20.1156 251.045 19.4401 250.649 18.9356C250.253 18.4312 249.73 18.0259 249.082 17.7197C248.451 17.3954 247.776 17.1072 247.055 16.855C246.587 16.6928 246.064 16.4857 245.488 16.2335C244.911 15.9633 244.362 15.63 243.84 15.2337C243.317 14.8193 242.885 14.3149 242.543 13.7204C242.218 13.126 242.056 12.3964 242.056 11.5317C242.056 10.5949 242.29 9.75726 242.759 9.01867C243.227 8.28007 243.876 7.70361 244.704 7.28927C245.533 6.85693 246.479 6.64075 247.542 6.64075C248.568 6.64075 249.46 6.83891 250.217 7.23523C250.991 7.61354 251.649 8.10893 252.189 8.72143C252.73 9.31591 253.153 9.94641 253.459 10.6129L251.487 11.7479C251.253 11.2795 250.955 10.8201 250.595 10.3698C250.235 9.91939 249.793 9.55009 249.271 9.26186C248.767 8.97363 248.145 8.82951 247.406 8.82951C246.38 8.82951 245.632 9.08172 245.164 9.58612C244.695 10.0725 244.461 10.622 244.461 11.2344C244.461 12.0271 244.776 12.7206 245.407 13.3151C246.037 13.9096 247.181 14.4951 248.839 15.0715C249.343 15.2517 249.874 15.4859 250.433 15.7741C250.991 16.0623 251.505 16.4316 251.973 16.882C252.46 17.3143 252.856 17.8458 253.162 18.4763C253.468 19.0888 253.621 19.8274 253.621 20.6921C253.621 21.7909 253.342 22.7457 252.784 23.5564C252.243 24.367 251.532 24.9975 250.649 25.4479C249.766 25.8802 248.821 26.0964 247.812 26.0964C246.785 26.0964 245.83 25.8802 244.947 25.4479C244.083 24.9975 243.317 24.4121 242.651 23.6915C242.002 22.9529 241.471 22.1692 241.056 21.3406L242.894 20.0976Z" fill="#363636"/>
<defs>
<linearGradient id="paint0_linear_80_1317" x1="58.7617" y1="1.7494e-06" x2="2.35691" y2="29.6604" gradientUnits="userSpaceOnUse">
<stop stop-color="#FFBA02"/>
<stop offset="0.5" stop-color="#F41E5E"/>
<stop offset="1" stop-color="#6C01C3"/>
</linearGradient>
<linearGradient id="paint1_linear_80_1317" x1="58.7617" y1="1.7494e-06" x2="2.35691" y2="29.6604" gradientUnits="userSpaceOnUse">
<stop stop-color="#FFBA02"/>
<stop offset="0.5" stop-color="#F41E5E"/>
<stop offset="1" stop-color="#6C01C3"/>
</linearGradient>
</defs>
</svg>
