<svg width="50" height="50" viewBox="0 0 50 50" fill="none" xmlns="http://www.w3.org/2000/svg">
<rect width="50" height="50" rx="25" fill="url(#paint0_linear_34_435)"/>
<path fill-rule="evenodd" clip-rule="evenodd" d="M15.0226 31.8979L15.7473 28.6369C15.9123 27.8943 16.2857 27.2142 16.8236 26.6762L26.6715 16.8283C28.2336 15.2662 30.7663 15.2662 32.3284 16.8283L33.6715 18.1715C35.2336 19.7336 35.2336 22.2662 33.6715 23.8283L23.8236 33.6762C23.2857 34.2142 22.6055 34.5875 21.8629 34.7526L18.602 35.4772C16.4585 35.9535 14.5463 34.0414 15.0226 31.8979ZM17.6997 29.0708L16.975 32.3317C16.8162 33.0462 17.4536 33.6836 18.1681 33.5248L21.429 32.8002C21.7861 32.7208 22.1144 32.5451 22.3782 32.2925L18.2073 28.1216C17.9547 28.3855 17.779 28.7137 17.6997 29.0708ZM19.6212 26.7071L23.7928 30.8787L29.3785 25.2929L25.207 21.1213L19.6212 26.7071ZM32.2573 22.4141L30.7928 23.8787L26.6212 19.7071L28.0857 18.2425C28.8668 17.4615 30.1331 17.4615 30.9142 18.2425L32.2573 19.5857C33.0384 20.3667 33.0384 21.633 32.2573 22.4141Z" fill="white"/>
<defs>
<linearGradient id="paint0_linear_34_435" x1="-1.06887" y1="0.152229" x2="53.6362" y2="4.40351" gradientUnits="userSpaceOnUse">
<stop stop-color="#6C01C3"/>
<stop offset="1" stop-color="#901CEE"/>
</linearGradient>
</defs>
</svg>
