<svg width="232" height="155" viewBox="0 0 232 155" fill="none" xmlns="http://www.w3.org/2000/svg">
<path d="M77.623 115.911C74.2711 116.395 71.3874 116.017 68.9717 114.777C66.5786 113.506 65.0703 111.367 64.4468 108.358L73.7897 107.008C74.1544 108.598 74.9833 109.3 76.2766 109.113C76.7516 109.045 77.1323 108.882 77.4184 108.625C77.7272 108.338 77.8472 107.957 77.7786 107.482C77.6832 106.822 77.2506 106.346 76.4807 106.053C75.7071 105.733 74.53 105.419 72.9493 105.108C71.063 104.734 69.4822 104.33 68.2068 103.894C66.9578 103.455 65.8271 102.716 64.8146 101.677C63.8022 100.638 63.1775 99.2057 62.9407 97.3808C62.6774 95.5597 62.9161 93.949 63.6567 92.5486C64.4198 91.118 65.5587 89.9565 67.0732 89.0639C68.6142 88.1676 70.4007 87.5725 72.4329 87.2787C75.8639 86.7827 78.6968 87.1815 80.9315 88.475C83.1927 89.7648 84.584 91.8404 85.1054 94.7019L75.6438 96.0697C75.5029 95.2818 75.223 94.743 74.8039 94.4533C74.3848 94.1636 73.9113 94.0569 73.3835 94.1332C73.014 94.1866 72.7295 94.3625 72.5301 94.6607C72.327 94.9326 72.2578 95.2929 72.3227 95.7415C72.4142 96.375 72.8336 96.8532 73.5809 97.1763C74.3507 97.4691 75.543 97.7952 77.1577 98.1546C79.0213 98.5588 80.5645 98.9823 81.7871 99.4253C83.0361 99.8644 84.1611 100.564 85.1621 101.524C86.1631 102.484 86.7819 103.782 87.0184 105.418C87.2664 107.134 87.0673 108.739 86.4212 110.233C85.7712 111.702 84.6966 112.935 83.1973 113.933C81.698 114.931 79.8399 115.59 77.623 115.911ZM104.068 112.088C101.429 112.469 98.9111 112.2 96.5148 111.28C94.1449 110.356 92.155 108.893 90.5451 106.889C88.9352 104.885 87.9318 102.511 87.535 99.7664C87.1382 97.0216 87.4281 94.4604 88.4046 92.0829C89.3812 89.7054 90.877 87.7513 92.892 86.2205C94.9297 84.6596 97.2681 83.6884 99.9073 83.3068C102.547 82.9253 105.051 83.1964 107.421 84.1201C109.787 85.0175 111.762 86.4699 113.345 88.4773C114.955 90.4809 115.959 92.8551 116.355 95.5999C116.752 98.3447 116.462 100.906 115.486 103.283C114.536 105.657 113.042 107.624 111.004 109.185C108.993 110.742 106.681 111.71 104.068 112.088ZM102.883 103.893C104.625 103.641 105.891 102.892 106.681 101.646C107.467 100.374 107.723 98.7879 107.448 96.8876C107.17 94.961 106.475 93.5121 105.365 92.541C104.25 91.5435 102.822 91.1706 101.081 91.4224C99.3123 91.6781 98.0351 92.442 97.2491 93.7142C96.4592 94.9601 96.2035 96.5463 96.482 98.4729C96.7567 100.373 97.4512 101.822 98.5654 102.82C99.6757 103.791 101.115 104.148 102.883 103.893ZM134.277 107.72C131.638 108.102 129.12 107.833 126.724 106.913C124.354 105.989 122.364 104.525 120.754 102.522C119.145 100.518 118.141 98.1439 117.744 95.3991C117.348 92.6543 117.637 90.0932 118.614 87.7156C119.591 85.3381 121.086 83.384 123.101 81.8533C125.139 80.2923 127.477 79.3211 130.117 78.9396C132.756 78.558 135.26 78.8291 137.63 79.7529C139.996 80.6502 141.971 82.1026 143.555 84.1101C145.165 86.1137 146.168 88.4879 146.565 91.2327C146.962 93.9775 146.672 96.5386 145.695 98.9161C144.745 101.29 143.251 103.257 141.214 104.818C139.202 106.375 136.89 107.343 134.277 107.72ZM133.093 99.5256C134.835 99.2737 136.101 98.5249 136.89 97.2791C137.676 96.0068 137.932 94.4206 137.657 92.5204C137.379 90.5937 136.684 89.1449 135.574 88.1737C134.46 87.1762 133.032 86.8034 131.29 87.0552C129.522 87.3108 128.245 88.0748 127.458 89.347C126.669 90.5928 126.413 92.179 126.691 94.1057C126.966 96.0059 127.661 97.4548 128.775 98.4523C129.885 99.4234 131.324 99.7812 133.093 99.5256ZM177.669 101.164L168.881 102.435L157.54 89.6864L159.577 103.78L150.789 105.05L146.737 77.0218L155.525 75.7513L166.9 88.7374L164.829 74.4064L173.617 73.1358L177.669 101.164Z" fill="url(#paint0_linear_230_22)"/>
<path d="M77.623 114.911C74.2711 115.395 71.3874 115.017 68.9717 113.777C66.5786 112.506 65.0703 110.367 64.4468 107.358L73.7897 106.008C74.1544 107.598 74.9833 108.3 76.2766 108.113C76.7516 108.045 77.1323 107.882 77.4184 107.625C77.7272 107.338 77.8472 106.957 77.7786 106.482C77.6832 105.822 77.2506 105.346 76.4807 105.053C75.7071 104.733 74.53 104.419 72.9493 104.108C71.063 103.734 69.4822 103.33 68.2068 102.894C66.9578 102.455 65.8271 101.716 64.8146 100.677C63.8022 99.6377 63.1775 98.2057 62.9407 96.3808C62.6774 94.5597 62.9161 92.949 63.6567 91.5486C64.4198 90.118 65.5587 88.9565 67.0732 88.0639C68.6142 87.1676 70.4007 86.5725 72.4329 86.2787C75.8639 85.7827 78.6968 86.1815 80.9315 87.475C83.1927 88.7648 84.584 90.8404 85.1054 93.7019L75.6438 95.0697C75.5029 94.2818 75.223 93.743 74.8039 93.4533C74.3848 93.1636 73.9113 93.0569 73.3835 93.1332C73.014 93.1866 72.7295 93.3625 72.5301 93.6607C72.327 93.9326 72.2578 94.2929 72.3227 94.7415C72.4142 95.375 72.8336 95.8532 73.5809 96.1763C74.3507 96.4691 75.543 96.7952 77.1577 97.1546C79.0213 97.5588 80.5645 97.9823 81.7871 98.4253C83.0361 98.8644 84.1611 99.564 85.1621 100.524C86.1631 101.484 86.7819 102.782 87.0184 104.418C87.2664 106.134 87.0673 107.739 86.4212 109.233C85.7712 110.702 84.6966 111.935 83.1973 112.933C81.698 113.931 79.8399 114.59 77.623 114.911ZM104.068 111.088C101.429 111.469 98.9111 111.2 96.5148 110.28C94.1449 109.356 92.155 107.893 90.5451 105.889C88.9352 103.885 87.9318 101.511 87.535 98.7664C87.1382 96.0216 87.4281 93.4604 88.4046 91.0829C89.3812 88.7054 90.877 86.7513 92.892 85.2205C94.9297 83.6596 97.2681 82.6884 99.9073 82.3068C102.547 81.9253 105.051 82.1964 107.421 83.1201C109.787 84.0175 111.762 85.4699 113.345 87.4773C114.955 89.4809 115.959 91.8551 116.355 94.5999C116.752 97.3447 116.462 99.9059 115.486 102.283C114.536 104.657 113.042 106.624 111.004 108.185C108.993 109.742 106.681 110.71 104.068 111.088ZM102.883 102.893C104.625 102.641 105.891 101.892 106.681 100.646C107.467 99.3741 107.723 97.7879 107.448 95.8876C107.17 93.961 106.475 92.5121 105.365 91.541C104.25 90.5435 102.822 90.1706 101.081 90.4224C99.3123 90.6781 98.0351 91.442 97.2491 92.7142C96.4592 93.9601 96.2035 95.5463 96.482 97.4729C96.7567 99.3732 97.4512 100.822 98.5654 101.82C99.6757 102.791 101.115 103.148 102.883 102.893ZM134.277 106.72C131.638 107.102 129.12 106.833 126.724 105.913C124.354 104.989 122.364 103.525 120.754 101.522C119.145 99.5181 118.141 97.1439 117.744 94.3991C117.348 91.6543 117.637 89.0932 118.614 86.7156C119.591 84.3381 121.086 82.384 123.101 80.8533C125.139 79.2923 127.477 78.3211 130.117 77.9396C132.756 77.558 135.26 77.8291 137.63 78.7529C139.996 79.6502 141.971 81.1026 143.555 83.1101C145.165 85.1137 146.168 87.4879 146.565 90.2327C146.962 92.9775 146.672 95.5386 145.695 97.9161C144.745 100.29 143.251 102.257 141.214 103.818C139.202 105.375 136.89 106.343 134.277 106.72ZM133.093 98.5256C134.835 98.2737 136.101 97.5249 136.89 96.2791C137.676 95.0068 137.932 93.4206 137.657 91.5204C137.379 89.5937 136.684 88.1449 135.574 87.1737C134.46 86.1762 133.032 85.8034 131.29 86.0552C129.522 86.3108 128.245 87.0748 127.458 88.347C126.669 89.5928 126.413 91.179 126.691 93.1057C126.966 95.0059 127.661 96.4548 128.775 97.4523C129.885 98.4234 131.324 98.7812 133.093 98.5256ZM177.669 100.164L168.881 101.435L157.54 88.6864L159.577 102.78L150.789 104.05L146.737 76.0218L155.525 74.7513L166.9 87.7374L164.829 73.4064L173.617 72.1358L177.669 100.164Z" fill="url(#paint1_linear_230_22)"/>
<path d="M35.3229 79.9097C34.9223 77.1385 35.1198 74.5907 35.9154 72.2663C36.7374 69.9381 38.1051 68.0294 40.0184 66.5403C41.9278 65.0249 44.2946 64.063 47.1185 63.6548C49.5466 63.3037 51.7776 63.4527 53.8114 64.1018C55.8677 64.7206 57.6099 65.7755 59.0379 67.2665C60.4924 68.7537 61.5778 70.5772 62.2941 72.7369L53.0304 74.0761C52.4746 73.2134 51.7646 72.5886 50.9003 72.2016C50.0586 71.7844 49.1363 71.6483 48.1334 71.7933C46.6555 72.007 45.5611 72.731 44.8504 73.9654C44.1661 75.1959 43.9594 76.7481 44.2303 78.622C44.5012 80.4959 45.1391 81.926 46.1439 82.9124C47.1751 83.8949 48.4296 84.2794 49.9076 84.0657C50.9105 83.9207 51.7584 83.5422 52.4513 82.9301C53.1668 82.2878 53.6689 81.4742 53.9576 80.4894L63.2213 79.1502C63.1459 81.4244 62.6214 83.4806 61.6477 85.3188C60.7004 87.1533 59.3302 88.6716 57.5371 89.8738C55.7666 91.0459 53.6673 91.8074 51.2392 92.1584C48.4152 92.5667 45.8749 92.3277 43.6182 91.4415C41.3577 90.5288 39.5036 89.0725 38.0559 87.0724C36.6345 85.0685 35.7235 82.6809 35.3229 79.9097ZM80.6621 87.9857C78.0229 88.3673 75.5051 88.0981 73.1088 87.1781C70.7389 86.2544 68.749 84.7907 67.1391 82.7871C65.5292 80.7835 64.5259 78.4093 64.1291 75.6645C63.7323 72.9197 64.0221 70.3585 64.9987 67.981C65.9752 65.6035 67.471 63.6494 69.4861 62.1186C71.5237 60.5577 73.8621 59.5865 76.5014 59.2049C79.1406 58.8234 81.6451 59.0945 84.015 60.0182C86.3811 60.9156 88.3559 62.368 89.9394 64.3754C91.5493 66.379 92.5527 68.7532 92.9495 71.498C93.3463 74.2428 93.0564 76.804 92.0799 79.1815C91.1297 81.5552 89.6358 83.5225 87.5982 85.0835C85.587 86.6406 83.2749 87.608 80.6621 87.9857ZM79.4774 79.7909C81.2193 79.5391 82.4852 78.7903 83.275 77.5444C84.0611 76.2722 84.3168 74.686 84.0421 72.7857C83.7635 70.8591 83.0691 69.4102 81.9587 68.4391C80.8445 67.4416 79.4165 67.0687 77.6746 67.3206C75.9063 67.5762 74.6292 68.3401 73.8431 69.6123C73.0532 70.8582 72.7975 72.4444 73.0761 74.371C73.3508 76.2713 74.0452 77.7202 75.1594 78.7177C76.2698 79.6888 77.7091 80.0465 79.4774 79.7909ZM126.811 52.4168L130.863 80.4454L122.114 81.7102L120.094 67.7355L117.799 82.3341L110.277 83.4215L103.942 70.0706L105.962 84.0453L97.1734 85.3158L93.1214 57.2872L103.889 55.7305L112.498 71.6628L116.083 53.9678L126.811 52.4168ZM138.576 50.716L142.628 78.7447L133.839 80.0152L129.787 51.9866L138.576 50.716ZM172.488 74.4279L163.699 75.6984L152.359 62.9499L154.396 77.0434L145.607 78.3139L141.555 50.2853L150.344 49.0147L161.719 62.0008L159.647 47.6698L168.436 46.3993L172.488 74.4279ZM189.983 53.0649C189.56 52.5602 189.011 52.2086 188.335 52.0098C187.656 51.7847 186.868 51.737 185.971 51.8667C184.281 52.1109 183.055 52.854 182.292 54.096C181.524 55.3116 181.278 56.8696 181.553 58.7698C181.869 60.9604 182.621 62.5223 183.806 63.4556C184.992 64.3888 186.654 64.701 188.792 64.3919C190.824 64.0981 192.342 63.0434 193.346 61.2278L186.339 62.2408L185.44 56.0254L199.732 53.9593L201.002 62.7479C200.089 65.0085 198.673 67.0454 196.753 68.8588C194.829 70.6458 192.23 71.7759 188.958 72.249C186.054 72.6687 183.435 72.4412 181.099 71.5664C178.786 70.6614 176.892 69.2107 175.418 67.2145C173.97 65.2144 173.046 62.8287 172.645 60.0575C172.245 57.2863 172.455 54.7366 173.277 52.4084C174.126 50.0763 175.533 48.162 177.499 46.6652C179.461 45.1422 181.881 44.1727 184.758 43.7568C188.426 43.2264 191.536 43.6794 194.088 45.1158C196.666 46.5483 198.386 48.7516 199.247 51.7257L189.983 53.0649Z" fill="url(#paint2_linear_230_22)"/>
<path d="M35.3229 78.9097C34.9223 76.1385 35.1198 73.5907 35.9154 71.2663C36.7374 68.9381 38.1051 67.0294 40.0184 65.5403C41.9278 64.0249 44.2946 63.063 47.1185 62.6548C49.5466 62.3037 51.7776 62.4527 53.8114 63.1018C55.8677 63.7206 57.6099 64.7755 59.0379 66.2665C60.4924 67.7537 61.5778 69.5772 62.2941 71.7369L53.0304 73.0761C52.4746 72.2134 51.7646 71.5886 50.9003 71.2016C50.0586 70.7844 49.1363 70.6483 48.1334 70.7933C46.6555 71.007 45.5611 71.731 44.8504 72.9654C44.1661 74.1959 43.9594 75.7481 44.2303 77.622C44.5012 79.4959 45.1391 80.926 46.1439 81.9124C47.1751 82.8949 48.4296 83.2794 49.9076 83.0657C50.9105 82.9207 51.7584 82.5422 52.4513 81.9301C53.1668 81.2878 53.6689 80.4742 53.9576 79.4894L63.2213 78.1502C63.1459 80.4244 62.6214 82.4806 61.6477 84.3188C60.7004 86.1533 59.3302 87.6716 57.5371 88.8738C55.7666 90.0459 53.6673 90.8074 51.2392 91.1584C48.4152 91.5667 45.8749 91.3277 43.6182 90.4415C41.3577 89.5288 39.5036 88.0725 38.0559 86.0724C36.6345 84.0685 35.7235 81.6809 35.3229 78.9097ZM80.6621 86.9857C78.0229 87.3673 75.5051 87.0981 73.1088 86.1781C70.7389 85.2544 68.749 83.7907 67.1391 81.7871C65.5292 79.7835 64.5259 77.4093 64.1291 74.6645C63.7323 71.9197 64.0221 69.3585 64.9987 66.981C65.9752 64.6035 67.471 62.6494 69.4861 61.1186C71.5237 59.5577 73.8621 58.5865 76.5014 58.2049C79.1406 57.8234 81.6451 58.0945 84.015 59.0182C86.3811 59.9156 88.3559 61.368 89.9394 63.3754C91.5493 65.379 92.5527 67.7532 92.9495 70.498C93.3463 73.2428 93.0564 75.804 92.0799 78.1815C91.1297 80.5552 89.6358 82.5225 87.5982 84.0835C85.587 85.6406 83.2749 86.608 80.6621 86.9857ZM79.4774 78.7909C81.2193 78.5391 82.4852 77.7903 83.275 76.5444C84.0611 75.2722 84.3168 73.686 84.0421 71.7857C83.7635 69.8591 83.0691 68.4102 81.9587 67.4391C80.8445 66.4416 79.4165 66.0687 77.6746 66.3206C75.9063 66.5762 74.6292 67.3401 73.8431 68.6123C73.0532 69.8582 72.7975 71.4444 73.0761 73.371C73.3508 75.2713 74.0452 76.7202 75.1594 77.7177C76.2698 78.6888 77.7091 79.0465 79.4774 78.7909ZM126.811 51.4168L130.863 79.4454L122.114 80.7102L120.094 66.7355L117.799 81.3341L110.277 82.4215L103.942 69.0706L105.962 83.0453L97.1734 84.3158L93.1214 56.2872L103.889 54.7305L112.498 70.6628L116.083 52.9678L126.811 51.4168ZM138.576 49.716L142.628 77.7447L133.839 79.0152L129.787 50.9866L138.576 49.716ZM172.488 73.4279L163.699 74.6984L152.359 61.9499L154.396 76.0434L145.607 77.3139L141.555 49.2853L150.344 48.0147L161.719 61.0008L159.647 46.6698L168.436 45.3993L172.488 73.4279ZM189.983 52.0649C189.56 51.5602 189.011 51.2086 188.335 51.0098C187.656 50.7847 186.868 50.737 185.971 50.8667C184.281 51.1109 183.055 51.854 182.292 53.096C181.524 54.3116 181.278 55.8696 181.553 57.7698C181.869 59.9604 182.621 61.5223 183.806 62.4556C184.992 63.3888 186.654 63.701 188.792 63.3919C190.824 63.0981 192.342 62.0434 193.346 60.2278L186.339 61.2408L185.44 55.0254L199.732 52.9593L201.002 61.7479C200.089 64.0085 198.673 66.0454 196.753 67.8588C194.829 69.6458 192.23 70.7759 188.958 71.249C186.054 71.6687 183.435 71.4412 181.099 70.5664C178.786 69.6614 176.892 68.2107 175.418 66.2145C173.97 64.2144 173.046 61.8287 172.645 59.0575C172.245 56.2863 172.455 53.7366 173.277 51.4084C174.126 49.0763 175.533 47.162 177.499 45.6652C179.461 44.1422 181.881 43.1727 184.758 42.7568C188.426 42.2264 191.536 42.6794 194.088 44.1158C196.666 45.5483 198.386 47.7516 199.247 50.7257L189.983 52.0649Z" fill="url(#paint3_linear_230_22)"/>
<circle cx="188" cy="22" r="4" fill="url(#paint4_linear_230_22)"/>
<g filter="url(#filter0_d_230_22)">
<circle cx="29" cy="106" r="5" fill="white"/>
</g>
<g filter="url(#filter1_d_230_22)">
<circle cx="120" cy="33" r="4" fill="white"/>
</g>
<circle cx="66" cy="143" r="5" fill="url(#paint5_linear_230_22)"/>
<circle cx="42" cy="47" r="5" fill="url(#paint6_linear_230_22)"/>
<circle cx="204" cy="94" r="3" fill="url(#paint7_linear_230_22)"/>
<circle cx="132" cy="120" r="3" fill="url(#paint8_linear_230_22)"/>
<path d="M72.9806 36.8255L78.7096 34.8642M76.8257 38.7094L74.8645 32.9803" stroke="url(#paint9_radial_230_22)" stroke-width="2" stroke-linecap="round"/>
<path d="M184.856 118.392L189.64 122.105M185.392 122.64L189.105 117.857" stroke="url(#paint10_radial_230_22)" stroke-width="2" stroke-linecap="round"/>
<g filter="url(#filter2_d_230_22)">
<path d="M152.15 9.7707L157.691 14.0721M152.77 14.6921L157.071 9.15069" stroke="white" stroke-width="3" stroke-linecap="round"/>
</g>
<g filter="url(#filter3_d_230_22)">
<path d="M131.303 134.113L138.538 139.729M132.113 140.539L137.729 133.304" stroke="white" stroke-width="3" stroke-linecap="round"/>
</g>
<defs>
<filter id="filter0_d_230_22" x="16" y="95" width="26" height="26" filterUnits="userSpaceOnUse" color-interpolation-filters="sRGB">
<feFlood flood-opacity="0" result="BackgroundImageFix"/>
<feColorMatrix in="SourceAlpha" type="matrix" values="0 0 0 0 0 0 0 0 0 0 0 0 0 0 0 0 0 0 127 0" result="hardAlpha"/>
<feOffset dy="2"/>
<feGaussianBlur stdDeviation="4"/>
<feComposite in2="hardAlpha" operator="out"/>
<feColorMatrix type="matrix" values="0 0 0 0 0 0 0 0 0 0 0 0 0 0 0 0 0 0 0.15 0"/>
<feBlend mode="normal" in2="BackgroundImageFix" result="effect1_dropShadow_230_22"/>
<feBlend mode="normal" in="SourceGraphic" in2="effect1_dropShadow_230_22" result="shape"/>
</filter>
<filter id="filter1_d_230_22" x="111" y="26" width="18" height="18" filterUnits="userSpaceOnUse" color-interpolation-filters="sRGB">
<feFlood flood-opacity="0" result="BackgroundImageFix"/>
<feColorMatrix in="SourceAlpha" type="matrix" values="0 0 0 0 0 0 0 0 0 0 0 0 0 0 0 0 0 0 127 0" result="hardAlpha"/>
<feOffset dy="2"/>
<feGaussianBlur stdDeviation="2.5"/>
<feComposite in2="hardAlpha" operator="out"/>
<feColorMatrix type="matrix" values="0 0 0 0 0 0 0 0 0 0 0 0 0 0 0 0 0 0 0.15 0"/>
<feBlend mode="normal" in2="BackgroundImageFix" result="effect1_dropShadow_230_22"/>
<feBlend mode="normal" in="SourceGraphic" in2="effect1_dropShadow_230_22" result="shape"/>
</filter>
<filter id="filter2_d_230_22" x="145.65" y="4.65062" width="18.541" height="18.5415" filterUnits="userSpaceOnUse" color-interpolation-filters="sRGB">
<feFlood flood-opacity="0" result="BackgroundImageFix"/>
<feColorMatrix in="SourceAlpha" type="matrix" values="0 0 0 0 0 0 0 0 0 0 0 0 0 0 0 0 0 0 127 0" result="hardAlpha"/>
<feOffset dy="2"/>
<feGaussianBlur stdDeviation="2.5"/>
<feComposite in2="hardAlpha" operator="out"/>
<feColorMatrix type="matrix" values="0 0 0 0 0 0 0 0 0 0 0 0 0 0 0 0 0 0 0.15 0"/>
<feBlend mode="normal" in2="BackgroundImageFix" result="effect1_dropShadow_230_22"/>
<feBlend mode="normal" in="SourceGraphic" in2="effect1_dropShadow_230_22" result="shape"/>
</filter>
<filter id="filter3_d_230_22" x="124.804" y="128.804" width="20.2344" height="20.2351" filterUnits="userSpaceOnUse" color-interpolation-filters="sRGB">
<feFlood flood-opacity="0" result="BackgroundImageFix"/>
<feColorMatrix in="SourceAlpha" type="matrix" values="0 0 0 0 0 0 0 0 0 0 0 0 0 0 0 0 0 0 127 0" result="hardAlpha"/>
<feOffset dy="2"/>
<feGaussianBlur stdDeviation="2.5"/>
<feComposite in2="hardAlpha" operator="out"/>
<feColorMatrix type="matrix" values="0 0 0 0 0 0 0 0 0 0 0 0 0 0 0 0 0 0 0.15 0"/>
<feBlend mode="normal" in2="BackgroundImageFix" result="effect1_dropShadow_230_22"/>
<feBlend mode="normal" in="SourceGraphic" in2="effect1_dropShadow_230_22" result="shape"/>
</filter>
<linearGradient id="paint0_linear_230_22" x1="119.14" y1="74.2778" x2="126.542" y2="125.48" gradientUnits="userSpaceOnUse">
<stop stop-color="#D7A7FF"/>
<stop offset="1" stop-color="#6E03C5"/>
</linearGradient>
<linearGradient id="paint1_linear_230_22" x1="119.14" y1="73.2778" x2="126.542" y2="124.48" gradientUnits="userSpaceOnUse">
<stop stop-color="#6E03C5"/>
<stop offset="1" stop-color="#D7A7FF"/>
</linearGradient>
<linearGradient id="paint2_linear_230_22" x1="117.591" y1="47.0161" x2="124.993" y2="98.2182" gradientUnits="userSpaceOnUse">
<stop stop-color="#D7A7FF"/>
<stop offset="1" stop-color="#6E03C5"/>
</linearGradient>
<linearGradient id="paint3_linear_230_22" x1="117.591" y1="46.0161" x2="124.993" y2="97.2182" gradientUnits="userSpaceOnUse">
<stop stop-color="#6E03C5"/>
<stop offset="1" stop-color="#D7A7FF"/>
</linearGradient>
<linearGradient id="paint4_linear_230_22" x1="188.138" y1="17.0625" x2="188.138" y2="29.2353" gradientUnits="userSpaceOnUse">
<stop stop-color="#6E03C5"/>
<stop offset="1" stop-color="#D7A7FF"/>
</linearGradient>
<linearGradient id="paint5_linear_230_22" x1="66.1724" y1="136.828" x2="66.1724" y2="152.044" gradientUnits="userSpaceOnUse">
<stop stop-color="#6E03C5"/>
<stop offset="1" stop-color="#D7A7FF"/>
</linearGradient>
<linearGradient id="paint6_linear_230_22" x1="42.1724" y1="40.8281" x2="42.1724" y2="56.0441" gradientUnits="userSpaceOnUse">
<stop stop-color="#6E03C5"/>
<stop offset="1" stop-color="#D7A7FF"/>
</linearGradient>
<linearGradient id="paint7_linear_230_22" x1="204.103" y1="90.2969" x2="204.103" y2="99.4265" gradientUnits="userSpaceOnUse">
<stop stop-color="#6E03C5"/>
<stop offset="1" stop-color="#D7A7FF"/>
</linearGradient>
<linearGradient id="paint8_linear_230_22" x1="132.103" y1="116.297" x2="132.103" y2="125.426" gradientUnits="userSpaceOnUse">
<stop stop-color="#6E03C5"/>
<stop offset="1" stop-color="#D7A7FF"/>
</linearGradient>
<radialGradient id="paint9_radial_230_22" cx="0" cy="0" r="1" gradientUnits="userSpaceOnUse" gradientTransform="translate(75.8451 35.8448) rotate(71.1025) scale(3.02771)">
<stop stop-color="#7E1BCE"/>
<stop offset="1" stop-color="#B36FEB"/>
</radialGradient>
<radialGradient id="paint10_radial_230_22" cx="0" cy="0" r="1" gradientUnits="userSpaceOnUse" gradientTransform="translate(187.248 120.248) rotate(127.82) scale(3.02771)">
<stop stop-color="#7E1BCE"/>
<stop offset="1" stop-color="#B36FEB"/>
</radialGradient>
</defs>
</svg>
