<svg width="281" height="280" viewBox="0 0 281 280" fill="none" xmlns="http://www.w3.org/2000/svg">
<path d="M102.291 242.485C117.148 251.44 127.747 247.723 131.804 240.542C139.651 226.655 165.741 198.258 207.087 188.66C261.847 175.948 250.412 142.196 216.748 124.484C183.085 106.773 157.914 82.2652 161.724 55.6178C165.533 28.9703 127.788 19.7841 111.002 71.0448C100.154 104.171 80.715 113.046 68.3188 115.179C56.6357 117.19 43.8558 119.713 37.6237 129.797C30.0615 142.033 32.7003 154.411 64.3617 162.9C109.229 174.93 68.991 222.413 102.291 242.485Z" fill="#F6F0FB"/>
<path d="M63.6905 184.424C64.3193 184.064 71.4156 181.06 106.719 197.518C106.616 197.658 106.572 197.724 106.572 197.724C106.572 197.724 69.8711 210.084 62.6803 194.858C60.533 190.325 61.1483 187.203 63.6292 184.459L63.6905 184.424Z" fill="#6C01C3"/>
<path d="M182.346 190.652C174.677 197.1 162.648 201.78 151.042 195.557C152.876 194.385 154.771 193.178 156.703 191.929C168.358 184.44 178.625 189.451 182.346 190.652Z" fill="#6C01C3"/>
<path d="M196.085 111.349C203.921 176.601 185.298 188.443 183.225 190.242C182.625 190.763 182.382 190.725 181.474 190.491L181.459 190.5C177.618 189.482 168.358 184.44 156.703 191.928C154.771 193.177 152.876 194.384 151.042 195.556C139.152 203.097 129.55 208.411 122.633 205.327C116.765 202.333 111.475 199.743 106.718 197.518C71.4155 181.06 64.3192 184.064 63.6904 184.424C64.42 184.027 71.1124 180.317 80.1236 173.793C80.1543 173.776 80.185 173.758 80.1915 173.734C92.2363 165.005 108.367 151.249 119.961 133.554C127.854 121.521 135.576 91.0171 150.475 85.0318C181.094 73.6092 194.813 98.0763 196.085 111.349Z" fill="#901CEE"/>
<path d="M162.228 110.204C163.179 107.694 163.086 105.333 162.021 104.93C160.956 104.526 159.323 106.234 158.372 108.744C157.422 111.254 157.515 113.615 158.579 114.018C159.644 114.422 161.278 112.714 162.228 110.204Z" fill="white"/>
<path d="M181.724 113.406C182.398 110.809 182.051 108.471 180.949 108.185C179.846 107.899 178.407 109.774 177.733 112.371C177.06 114.969 177.407 117.307 178.509 117.593C179.611 117.878 181.051 116.004 181.724 113.406Z" fill="white"/>
<path d="M169.857 122.945C169.697 122.944 169.542 122.89 169.418 122.789C169.294 122.689 169.208 122.549 169.174 122.393C169.049 121.828 168.494 120.156 167.613 119.908C166.733 119.659 165.006 120.624 164.307 121.13C164.157 121.239 163.97 121.284 163.786 121.255C163.603 121.225 163.439 121.124 163.33 120.974C163.221 120.823 163.176 120.636 163.206 120.453C163.235 120.269 163.336 120.105 163.486 119.996C163.762 119.797 166.228 118.062 167.993 118.56C169.835 119.08 170.475 121.788 170.541 122.096C170.564 122.198 170.563 122.304 170.539 122.406C170.515 122.507 170.468 122.603 170.402 122.684C170.337 122.766 170.254 122.831 170.159 122.876C170.065 122.921 169.961 122.945 169.857 122.945H169.857Z" fill="white"/>
</svg>
