<svg width="64" height="64" viewBox="0 0 64 64" fill="none" xmlns="http://www.w3.org/2000/svg">
<path d="M49.8774 36.8026V28.5202H46.2448C45.914 27.343 45.4464 26.2086 44.8514 25.1403L47.4241 22.5674L41.5661 16.7094L38.9981 19.3146C37.9327 18.7149 36.7978 18.2478 35.6189 17.9239V14.2619H27.3367V17.8943C26.1594 18.2251 25.0249 18.6928 23.9566 19.2879L21.3839 16.715L15.5314 22.5674L18.0994 25.1356C17.4982 26.2026 17.0301 27.3393 16.7056 28.5202H13.0781V36.8026H16.7108C17.0415 37.9799 17.5092 39.1144 18.1041 40.1827L15.5314 42.7554L21.3838 48.6079L23.9518 46.0399C25.0189 46.641 26.1557 47.1091 27.3367 47.4337V51.0612H35.6189V47.4285C36.7961 47.0978 37.9306 46.6301 38.999 46.0352L41.5717 48.6079L47.4241 42.7554L44.8561 40.1872C45.4573 39.1203 45.9254 37.9836 46.2499 36.8026H49.8774ZM31.4778 42.8368C29.4653 42.8367 27.498 42.2399 25.8247 41.1218C24.1514 40.0037 22.8472 38.4146 22.0771 36.5553C21.307 34.696 21.1055 32.65 21.4981 30.6762C21.8907 28.7024 22.8599 26.8894 24.2829 25.4663C25.706 24.0433 27.5191 23.0742 29.4929 22.6816C31.4667 22.289 33.5126 22.4906 35.3719 23.2607C37.2312 24.0309 38.8203 25.3351 39.9384 27.0084C41.0565 28.6818 41.6532 30.649 41.6532 32.6615C41.6501 35.3593 40.5771 37.9456 38.6695 39.8532C36.7619 41.7608 34.1755 42.8337 31.4778 42.8368Z" fill="#F41E5E"/>
<path d="M7.22057 41.2358C6.98636 41.2356 6.75838 41.1604 6.57002 41.0213C6.38166 40.8821 6.24284 40.6862 6.17391 40.4624C5.06484 36.8528 4.74007 33.0478 5.22136 29.3024C5.70264 25.557 6.97887 21.9577 8.96451 18.7458C10.9502 15.5338 13.5994 12.7833 16.7346 10.6786C19.8699 8.57395 23.4187 7.16366 27.1434 6.54227C27.2854 6.51889 27.4306 6.5237 27.5707 6.55643C27.7108 6.58916 27.8431 6.64917 27.9601 6.73303C28.077 6.81689 28.1762 6.92295 28.2522 7.04517C28.3281 7.16739 28.3792 7.30337 28.4026 7.44535C28.426 7.58732 28.4212 7.73251 28.3885 7.87263C28.3557 8.01274 28.2957 8.14504 28.2119 8.26197C28.128 8.37889 28.0219 8.47815 27.8997 8.55409C27.7775 8.63002 27.6415 8.68114 27.4995 8.70452C24.0835 9.27511 20.8288 10.5691 17.9535 12.4998C15.0782 14.4306 12.6487 16.9534 10.8277 19.8994C9.0067 22.8455 7.83628 26.1466 7.39484 29.5817C6.95341 33.0169 7.25114 36.5067 8.26809 39.8174C8.31846 39.9813 8.32967 40.1548 8.30082 40.3238C8.27197 40.4929 8.20387 40.6528 8.102 40.7908C8.00012 40.9287 7.8673 41.0408 7.71422 41.1181C7.56113 41.1954 7.39205 41.2357 7.22057 41.2358V41.2358Z" fill="#F41E5E"/>
<path d="M31.4778 59.1338C27.6152 59.1368 23.7988 58.2931 20.2973 56.6622C16.7959 55.0312 13.6945 52.6525 11.2115 49.6937C11.025 49.4713 10.9344 49.1839 10.9596 48.8947C10.9848 48.6056 11.1237 48.3382 11.3458 48.1513C11.5679 47.9645 11.8551 47.8734 12.1443 47.8981C12.4335 47.9228 12.7011 48.0612 12.8884 48.283C15.1509 50.9751 17.9712 53.1437 21.1542 54.6387C24.3371 56.1338 27.8068 56.9196 31.3233 56.942C34.8399 56.9644 38.3193 56.2227 41.521 54.7682C44.7227 53.3138 47.5704 51.1813 49.867 48.5182C50.0568 48.2982 50.3263 48.1627 50.6161 48.1414C50.9059 48.12 51.1923 48.2147 51.4122 48.4046C51.6322 48.5944 51.7678 48.8639 51.7891 49.1537C51.8104 49.4435 51.7157 49.7299 51.5259 49.9499C49.041 52.8321 45.9638 55.1445 42.504 56.7294C39.0442 58.3144 35.2833 59.1345 31.4778 59.1338V59.1338Z" fill="#F41E5E"/>
<path d="M55.1814 42.8382C55.0037 42.8381 54.8288 42.7947 54.6715 42.712C54.5143 42.6292 54.3796 42.5094 54.279 42.363C54.1783 42.2166 54.1148 42.048 54.0938 41.8715C54.0728 41.6951 54.095 41.5162 54.1585 41.3503C55.4387 37.9993 55.9613 34.4065 55.6887 30.8296C55.4161 27.2527 54.3551 23.7806 52.5819 20.6623C50.8086 17.544 48.367 14.8569 45.4324 12.7939C42.4978 10.7309 39.1429 9.34302 35.6084 8.72998C35.4663 8.70598 35.3304 8.65419 35.2084 8.57758C35.0863 8.50096 34.9806 8.40103 34.8972 8.2835C34.8139 8.16597 34.7545 8.03315 34.7226 7.89265C34.6906 7.75215 34.6867 7.60673 34.711 7.46471C34.7354 7.32269 34.7875 7.18687 34.8644 7.06501C34.9413 6.94316 35.0415 6.83768 35.1592 6.75459C35.2769 6.67151 35.4099 6.61247 35.5504 6.58085C35.691 6.54923 35.8364 6.54564 35.9784 6.57031C39.8322 7.23802 43.4904 8.75067 46.6903 10.9997C49.8902 13.2487 52.5526 16.1783 54.4861 19.5781C56.4197 22.9779 57.5766 26.7637 57.8738 30.6636C58.1709 34.5635 57.6009 38.4808 56.2047 42.1344C56.1254 42.3414 55.9851 42.5196 55.8024 42.6452C55.6197 42.7709 55.4031 42.8382 55.1814 42.8382V42.8382Z" fill="#F41E5E"/>
<path d="M27.4298 11.1634C27.2131 11.1634 27.0013 11.0991 26.8212 10.9787C26.641 10.8583 26.5006 10.6872 26.4177 10.487C26.3348 10.2868 26.3131 10.0665 26.3553 9.854C26.3976 9.64148 26.5019 9.44627 26.6551 9.29303L28.2704 7.67757L26.5468 5.95379C26.4451 5.85206 26.3644 5.73129 26.3093 5.59837C26.2543 5.46545 26.226 5.32299 26.226 5.17912C26.226 4.88856 26.3414 4.6099 26.5468 4.40444C26.7523 4.19898 27.031 4.08356 27.3215 4.08356C27.6121 4.08356 27.8907 4.19898 28.0962 4.40444L31.3695 7.67755L28.2045 10.8424C28.1029 10.9443 27.9821 11.0251 27.8492 11.0802C27.7162 11.1353 27.5737 11.1636 27.4298 11.1634V11.1634Z" fill="#F41E5E"/>
<path d="M54.0292 44.7356L52.3463 40.5883C52.2378 40.3191 52.2405 40.018 52.3538 39.7509C52.467 39.4837 52.6816 39.2724 52.9505 39.1633C53.2194 39.0542 53.5205 39.0563 53.7879 39.1689C54.0553 39.2816 54.2671 39.4957 54.3768 39.7644L55.2358 41.8812L57.4947 40.9647C57.7638 40.8562 58.065 40.8589 58.3321 40.9721C58.5993 41.0854 58.8105 41.3 58.9196 41.5689C59.0287 41.8377 59.0267 42.1389 58.9141 42.4063C58.8014 42.6736 58.5872 42.8854 58.3186 42.9951L54.0292 44.7356Z" fill="#F41E5E"/>
<path d="M10.2112 51.3308C10.0478 51.3308 9.88635 51.2943 9.73881 51.2238C9.59128 51.1534 9.46136 51.0509 9.35855 50.9238C9.25575 50.7967 9.18267 50.6482 9.14467 50.4892C9.10666 50.3302 9.10469 50.1647 9.1389 50.0048L10.1107 45.4788L14.4867 46.4182C14.7706 46.4795 15.0185 46.6509 15.1761 46.8949C15.3336 47.1388 15.3878 47.4354 15.3269 47.7193C15.2659 48.0032 15.0947 48.2514 14.8509 48.4091C14.6071 48.5669 14.3106 48.6215 14.0266 48.5608L11.7931 48.0814L11.2815 50.4649C11.2288 50.7098 11.0939 50.9293 10.8992 51.0868C10.7045 51.2443 10.4617 51.3304 10.2112 51.3308Z" fill="#F41E5E"/>
</svg>
