<svg width="64" height="64" viewBox="0 0 64 64" fill="none" xmlns="http://www.w3.org/2000/svg">
<path d="M32 20.0891C20.3844 20.0891 11 29.5391 11 41.0891C11 52.7047 20.45 62.0891 32 62.0891C43.55 62.0891 53 52.6391 53 41.0891C53 29.5391 43.6156 20.0891 32 20.0891ZM32 56.7735C23.3375 56.7735 16.3156 49.7516 16.3156 41.0891C16.3156 32.4266 23.3375 25.4704 32 25.4704C40.6625 25.4704 47.6844 32.4922 47.6844 41.1547C47.6844 49.8172 40.6625 56.7735 32 56.7735Z" fill="#F41E5E"/>
<path d="M32.7874 39.186H31.1468C30.6874 39.186 30.2281 38.9891 29.8999 38.661C29.5718 38.3328 29.4406 37.8078 29.5062 37.3485C29.5718 36.4953 30.3593 35.8391 31.3437 35.8391H33.2468C33.7062 35.8391 34.1656 36.1672 34.2312 36.6266C34.2968 37.0203 34.6906 37.2828 35.0843 37.2828H37.2499C37.5124 37.2828 37.7093 37.1516 37.9062 37.0203C38.0374 36.8235 38.1687 36.6266 38.1031 36.3641C37.9062 34.1328 36.1343 32.361 33.9687 32.0328V30.261C33.9687 29.8016 33.5749 29.4078 33.1156 29.4078H30.9499C30.4906 29.4078 30.0968 29.8016 30.0968 30.261V32.0328C27.3406 32.6235 25.4374 35.1828 25.6999 38.0047C25.9624 40.8266 28.5218 42.9922 31.4749 42.9922H32.8531C33.3124 42.9922 33.7718 43.1891 34.0999 43.5172C34.4281 43.8453 34.5593 44.3703 34.4937 44.8297C34.4281 45.6828 33.6406 46.3391 32.7218 46.3391H30.8187C30.3593 46.3391 29.8999 46.011 29.8343 45.5516C29.7687 45.1578 29.3749 44.8953 28.9812 44.8953H26.7499C26.4874 44.8953 26.2906 45.0266 26.0937 45.1578C25.9624 45.3547 25.8312 45.5516 25.8968 45.8141C26.0937 48.0453 27.8656 49.8172 30.0312 50.1453V51.9828C30.0312 52.4422 30.4249 52.836 30.8843 52.836H33.0499C33.5093 52.836 33.9031 52.4422 33.9031 51.9828V50.1453C36.2656 49.6203 38.1031 47.6516 38.2999 45.2891C38.4312 43.7141 37.9718 42.2047 36.8562 41.0235C35.8718 39.8422 34.3624 39.186 32.7874 39.186Z" fill="#F41E5E"/>
<path d="M32 16.3641C33.5093 16.3641 34.6906 15.1828 34.6906 13.6735V3.5016C34.6906 1.99222 33.5093 0.810974 32 0.810974C30.4906 0.810974 29.3093 1.99222 29.3093 3.5016V13.6735C29.3093 15.1828 30.4906 16.3641 32 16.3641Z" fill="#F41E5E"/>
<path d="M21.1718 18.9891C22.6812 18.9891 23.8625 17.8079 23.8625 16.2985V6.71724C23.8625 5.20786 22.6812 4.02661 21.1718 4.02661C19.6625 4.02661 18.4812 5.20786 18.4812 6.71724V16.2985C18.4812 17.7422 19.6625 18.9891 21.1718 18.9891Z" fill="#F41E5E"/>
<path d="M42.8281 18.9891C44.3375 18.9891 45.5187 17.8079 45.5187 16.2985V6.71724C45.5187 5.20786 44.3375 4.02661 42.8281 4.02661C41.3187 4.02661 40.1375 5.20786 40.1375 6.71724V16.2985C40.2031 17.7422 41.3843 18.9891 42.8281 18.9891Z" fill="#F41E5E"/>
</svg>
