<svg width="64" height="64" viewBox="0 0 64 64" fill="none" xmlns="http://www.w3.org/2000/svg">
<path d="M32 60.6666C16.1679 60.6666 3.33337 47.8321 3.33337 32C3.33337 16.1678 16.1679 3.33331 32 3.33331C47.8322 3.33331 60.6667 16.1678 60.6667 32C60.6667 47.8321 47.8322 60.6666 32 60.6666ZM32 56.6666C45.6231 56.6666 56.6667 45.623 56.6667 32C56.6667 18.377 45.6231 7.33331 32 7.33331C18.377 7.33331 7.33337 18.377 7.33337 32C7.33337 45.623 18.377 56.6666 32 56.6666Z" fill="#F41E5E"/>
<path d="M42 23.4951V45.3334C42 46.4379 41.1046 47.3334 40 47.3334C38.8954 47.3334 38 46.4379 38 45.3334V23.4951L33.4142 28.0809C32.6332 28.8619 31.3668 28.8619 30.5858 28.0809C29.8047 27.2999 29.8047 26.0335 30.5858 25.2525L38.5858 17.2525C39.3668 16.4714 40.6332 16.4714 41.4142 17.2525L49.4142 25.2525C50.1953 26.0335 50.1953 27.2999 49.4142 28.0809C48.6332 28.8619 47.3668 28.8619 46.5858 28.0809L42 23.4951ZM22 40.5049V18.6667C22 17.5621 22.8954 16.6667 24 16.6667C25.1046 16.6667 26 17.5621 26 18.6667V40.5049L30.5858 35.9191C31.3668 35.1381 32.6332 35.1381 33.4142 35.9191C34.1953 36.7002 34.1953 37.9665 33.4142 38.7476L25.4142 46.7476C24.6332 47.5286 23.3668 47.5286 22.5858 46.7476L14.5858 38.7476C13.8047 37.9665 13.8047 36.7002 14.5858 35.9191C15.3668 35.1381 16.6332 35.1381 17.4142 35.9191L22 40.5049Z" fill="#F41E5E"/>
</svg>
