<svg width="64" height="64" viewBox="0 0 64 64" fill="none" xmlns="http://www.w3.org/2000/svg">
<path d="M17.2 38.52C15.3804 38.52 13.6017 39.0596 12.0888 40.0705C10.5758 41.0814 9.39664 42.5183 8.70031 44.1993C8.00399 45.8804 7.8218 47.7302 8.17678 49.5148C8.53176 51.2995 9.40798 52.9388 10.6946 54.2254C11.9813 55.512 13.6205 56.3883 15.4052 56.7432C17.1898 57.0982 19.0396 56.916 20.7207 56.2197C22.4018 55.5234 23.8386 54.3442 24.8495 52.8313C25.8604 51.3183 26.4 49.5396 26.4 47.72C26.3979 45.2807 25.4279 42.9419 23.703 41.217C21.9782 39.4921 19.6393 38.5221 17.2 38.52V38.52ZM17.2 52.12C16.3298 52.12 15.4791 51.862 14.7555 51.3785C14.0319 50.895 13.468 50.2078 13.1349 49.4038C12.8019 48.5998 12.7148 47.7151 12.8845 46.8616C13.0543 46.0081 13.4734 45.2241 14.0887 44.6088C14.7041 43.9934 15.4881 43.5743 16.3416 43.4046C17.1951 43.2348 18.0798 43.3219 18.8838 43.6549C19.6878 43.988 20.375 44.5519 20.8585 45.2755C21.3419 45.9991 21.6 46.8498 21.6 47.72C21.6 48.887 21.1364 50.0061 20.3113 50.8313C19.4861 51.6564 18.367 52.12 17.2 52.12Z" fill="#F41E5E"/>
<path d="M46.8001 7.32001C44.9805 7.32001 43.2018 7.85958 41.6889 8.87049C40.1759 9.88139 38.9967 11.3182 38.3004 12.9993C37.6041 14.6804 37.4219 16.5302 37.7769 18.3148C38.1319 20.0995 39.0081 21.7387 40.2947 23.0254C41.5814 24.312 43.2206 25.1882 45.0053 25.5432C46.7899 25.8982 48.6397 25.716 50.3208 25.0197C52.0019 24.3234 53.4387 23.1442 54.4496 21.6313C55.4605 20.1183 56.0001 18.3396 56.0001 16.52C55.998 14.0807 55.028 11.7418 53.3031 10.017C51.5783 8.29209 49.2394 7.32213 46.8001 7.32001V7.32001ZM46.8001 20.92C45.9299 20.92 45.0792 20.6619 44.3556 20.1785C43.632 19.695 43.0681 19.0078 42.735 18.2038C42.402 17.3998 42.3149 16.5151 42.4846 15.6616C42.6544 14.8081 43.0735 14.0241 43.6888 13.4087C44.3042 12.7934 45.0882 12.3743 45.9417 12.2046C46.7952 12.0348 47.6799 12.1219 48.4839 12.4549C49.2879 12.788 49.9751 13.3519 50.4586 14.0755C50.942 14.7991 51.2001 15.6498 51.2001 16.52C51.2001 17.687 50.7365 18.8061 49.9114 19.6313C49.0862 20.4564 47.9671 20.92 46.8001 20.92Z" fill="#F41E5E"/>
<path d="M51.2 40.92C51.2 41.9808 50.7786 42.9983 50.0284 43.7484C49.2783 44.4985 48.2609 44.92 47.2 44.92H38.592L43.296 40.216L39.904 36.824L31.104 45.624C30.6545 46.074 30.4021 46.684 30.4021 47.32C30.4021 47.956 30.6545 48.566 31.104 49.016L39.904 57.816L43.296 54.424L38.592 49.72H47.2C48.3556 49.72 49.4999 49.4924 50.5676 49.0501C51.6353 48.6079 52.6054 47.9597 53.4225 47.1425C54.2397 46.3254 54.8879 45.3552 55.3301 44.2876C55.7724 43.2199 56 42.0756 56 40.92V29.72H51.2V40.92Z" fill="#F41E5E"/>
<path d="M8 32.92H12.8V23.32C12.8 22.2591 13.2214 21.2417 13.9716 20.4916C14.7217 19.7414 15.7391 19.32 16.8 19.32H24.992L20.8 23.144L24 26.696L32.8 18.696C33.04 18.4774 33.2331 18.2123 33.3678 17.9168C33.5024 17.6214 33.5756 17.3017 33.5831 16.9771C33.5906 16.6526 33.5321 16.3298 33.4113 16.0285C33.2904 15.7272 33.1097 15.4535 32.88 15.224L24.08 6.42401L20.688 9.81601L25.408 14.52H16.8C14.4661 14.52 12.2278 15.4472 10.5775 17.0975C8.92714 18.7478 8 20.9861 8 23.32V32.92Z" fill="#F41E5E"/>
</svg>
